<?xml version="1.0" standalone="no"?>
<!DOCTYPE svg PUBLIC "-//W3C//DTD SVG 20010904//EN"
 "http://www.w3.org/TR/2001/REC-SVG-20010904/DTD/svg10.dtd">
<svg version="1.0" xmlns="http://www.w3.org/2000/svg"
 width="908.000000pt" height="908.000000pt" viewBox="0 0 908.000000 908.000000"
 preserveAspectRatio="xMidYMid meet">
<metadata>
Created by potrace 1.11, written by Peter Selinger 2001-2013
</metadata>
<g transform="translate(0.000000,908.000000) scale(0.100000,-0.100000)"
fill="#000000" stroke="none">
<path d="M2185 7269 c-683 -48 -1121 -192 -1401 -461 -188 -181 -290 -386
-340 -688 -18 -114 -18 -420 1 -525 32 -180 95 -345 180 -475 96 -147 291
-320 451 -398 122 -60 299 -121 399 -137 22 -3 47 -10 55 -16 13 -8 12 -12 -4
-24 -11 -8 -28 -15 -39 -15 -27 0 -239 -54 -332 -85 -105 -35 -283 -120 -371
-178 -302 -199 -476 -480 -534 -862 -17 -105 -14 -433 5 -545 48 -304 156
-542 342 -757 101 -118 282 -259 443 -344 146 -78 389 -161 558 -190 322 -56
390 -59 1559 -59 l1063 0 5 23 c3 12 4 1309 3 2882 l-3 2860 -960 1 c-528 1
-1014 -3 -1080 -7z m1363 -1511 l-3 -933 -700 0 c-733 0 -749 1 -978 47 -369
74 -581 235 -675 513 -98 290 -74 660 54 863 152 241 435 374 899 421 167 18
159 17 803 19 l602 2 -2 -932z m2 -2589 l0 -1070 -762 4 c-794 4 -779 3 -983
49 -439 100 -696 318 -794 673 -6 22 -15 58 -21 80 -19 68 -29 297 -20 417 16
206 72 364 176 499 119 155 345 289 579 344 133 31 150 34 230 45 187 25 272
27 918 29 l677 1 0 -1071z"/>
<path d="M4832 4398 l3 -2883 1040 -3 c1053 -3 1212 0 1440 34 204 30 276 47
419 95 513 172 866 508 1009 964 59 187 77 313 77 542 0 306 -43 498 -157 707
-118 214 -302 382 -550 501 -54 26 -108 52 -120 56 -13 5 -33 13 -45 18 -13 5
-36 14 -53 20 -38 14 -288 77 -337 86 -23 3 -38 12 -38 20 0 13 55 35 90 35
32 1 183 50 287 94 151 64 280 150 389 260 171 172 270 360 321 612 23 113 25
468 4 584 -84 465 -331 765 -776 942 -201 80 -400 124 -745 168 -169 21 -230
22 -1238 27 l-1022 4 2 -2883z m2128 2269 c225 -33 396 -77 525 -137 219 -102
360 -273 414 -500 17 -74 31 -185 31 -252 0 -62 -21 -235 -39 -313 -72 -328
-330 -534 -756 -605 -38 -6 -95 -16 -125 -22 -35 -7 -317 -13 -777 -16 l-723
-4 0 937 0 937 668 -5 c548 -3 687 -7 782 -20z m-32 -2437 c133 -14 249 -29
297 -40 216 -47 354 -100 484 -183 285 -185 411 -491 381 -923 -37 -515 -301
-809 -840 -933 -195 -45 -187 -44 -977 -48 l-763 -4 -2 1060 c-2 584 -1 1066
0 1071 5 13 1291 13 1420 0z"/>
</g>
</svg>
