<?xml version="1.0" encoding="utf-8"?>
<!-- Generator: Adobe Illustrator 19.1.0, SVG Export Plug-In . SVG Version: 6.00 Build 0)  -->
<svg version="1.1" id="Laag_1" xmlns="http://www.w3.org/2000/svg" xmlns:xlink="http://www.w3.org/1999/xlink" x="0px" y="0px"
	 viewBox="0 0 30 30" style="enable-background:new 0 0 30 30;" xml:space="preserve">
<style type="text/css">
	.st0{fill:#DDDDDD;}
</style>
<path class="st0" d="M22.672,2.572H7.337c-2.663,0-4.83,2.168-4.83,4.832v5.103v10.237c0,2.665,2.167,4.828,4.83,4.828h15.335
	c2.665,0,4.832-2.165,4.832-4.828V12.508V7.404C27.504,4.741,25.335,2.572,22.672,2.572z M24.057,5.456l0.553-0.003v0.552v3.687
	l-4.223,0.015l-0.015-4.238L24.057,5.456z M11.437,12.509c0.798-1.107,2.098-1.835,3.567-1.835s2.767,0.728,3.568,1.835
	c0.52,0.725,0.833,1.608,0.833,2.565c0,2.425-1.977,4.402-4.402,4.402c-2.427,0-4.4-1.977-4.4-4.402
	C10.604,14.118,10.915,13.234,11.437,12.509z M25.067,22.746c0,1.322-1.075,2.395-2.397,2.395H7.335
	c-1.322,0-2.397-1.073-2.397-2.395V12.509H8.67c-0.323,0.793-0.503,1.657-0.503,2.565c0,3.77,3.065,6.84,6.835,6.84
	s6.837-3.07,6.837-6.84c0-0.908-0.182-1.772-0.505-2.565h3.732v10.237H25.067z"/>
<g>
</g>
<g>
</g>
<g>
</g>
<g>
</g>
<g>
</g>
<g>
</g>
<g>
</g>
<g>
</g>
<g>
</g>
<g>
</g>
<g>
</g>
<g>
</g>
<g>
</g>
<g>
</g>
<g>
</g>
</svg>
