<?xml version="1.0" encoding="utf-8"?>
<!-- Generator: Adobe Illustrator 19.1.0, SVG Export Plug-In . SVG Version: 6.00 Build 0)  -->
<svg version="1.1" id="Laag_1" xmlns="http://www.w3.org/2000/svg" xmlns:xlink="http://www.w3.org/1999/xlink" x="0px" y="0px"
	 viewBox="0 0 30 30" style="enable-background:new 0 0 30 30;" xml:space="preserve">
<style type="text/css">
	.st0{fill:#DDDDDD;}
</style>
<path class="st0" d="M13.99,8.785c0.472,0.659,0.709,1.445,0.709,2.362c0,0.941-0.237,1.701-0.714,2.275
	c-0.269,0.32-0.661,0.614-1.181,0.879c0.789,0.29,1.385,0.742,1.787,1.364c0.402,0.622,0.602,1.378,0.602,2.265
	c0,0.917-0.229,1.74-0.691,2.467c-0.292,0.48-0.657,0.887-1.094,1.216c-0.492,0.38-1.074,0.639-1.746,0.779
	c-0.671,0.138-1.398,0.207-2.185,0.207H2.51V7.137h7.471C11.868,7.164,13.202,7.713,13.99,8.785z M5.593,9.823v3.413h3.76
	c0.669,0,1.216-0.128,1.636-0.384c0.417-0.255,0.627-0.711,0.627-1.356c0-0.724-0.279-1.198-0.831-1.43
	c-0.479-0.162-1.088-0.242-1.828-0.242H5.593V9.823z M5.593,15.793v4.125h3.753c0.671,0,1.193-0.093,1.565-0.274
	c0.679-0.335,1.016-0.981,1.016-1.928c0-0.806-0.325-1.358-0.983-1.66c-0.369-0.168-0.884-0.255-1.546-0.262H5.593V15.793z
	 M24.539,11.399c0.799,0.357,1.456,0.919,1.975,1.69c0.472,0.681,0.776,1.47,0.914,2.365c0.08,0.525,0.113,1.283,0.1,2.27h-8.329
	c0.048,1.146,0.444,1.95,1.196,2.41c0.457,0.287,1.006,0.43,1.65,0.43c0.677,0,1.231-0.173,1.656-0.522
	c0.235-0.188,0.44-0.452,0.617-0.787h3.053c-0.082,0.677-0.452,1.368-1.108,2.068c-1.024,1.109-2.46,1.666-4.3,1.666
	c-1.525,0-2.867-0.467-4.027-1.408c-1.166-0.937-1.746-2.467-1.746-4.577c0-1.983,0.524-3.501,1.573-4.557
	c1.053-1.058,2.412-1.586,4.088-1.586C22.846,10.862,23.741,11.039,24.539,11.399z M20.067,13.98
	c-0.422,0.437-0.687,1.029-0.797,1.772h5.153c-0.053-0.794-0.32-1.395-0.797-1.808c-0.479-0.407-1.069-0.614-1.775-0.614
	C21.086,13.327,20.489,13.546,20.067,13.98z M25.123,7.859h-6.624v1.922h6.624V7.859z"/>
<g>
</g>
<g>
</g>
<g>
</g>
<g>
</g>
<g>
</g>
<g>
</g>
<g>
</g>
<g>
</g>
<g>
</g>
<g>
</g>
<g>
</g>
<g>
</g>
<g>
</g>
<g>
</g>
<g>
</g>
</svg>
