<?xml version="1.0" encoding="utf-8"?>
<!-- Generator: Adobe Illustrator 19.1.0, SVG Export Plug-In . SVG Version: 6.00 Build 0)  -->
<svg version="1.1" id="Laag_1" xmlns="http://www.w3.org/2000/svg" xmlns:xlink="http://www.w3.org/1999/xlink" x="0px" y="0px"
	 viewBox="0 0 30 30" style="enable-background:new 0 0 30 30;" xml:space="preserve">
<style type="text/css">
	.st0{fill:#DDDDDD;}
</style>
<path class="st0" d="M3.705,19.904c0.055,0,0.098-0.04,0.105-0.102l0.28-2.195l-0.278-2.247c-0.008-0.057-0.052-0.1-0.107-0.1
	c-0.052,0-0.095,0.042-0.103,0.1l-0.245,2.247l0.245,2.195C3.61,19.864,3.654,19.904,3.705,19.904z M2.882,18.976L2.882,18.976
	L2.882,18.976L2.882,18.976z M2.782,19.072c0.05,0,0.092-0.04,0.1-0.098L3.1,17.607l-0.218-1.387
	c-0.007-0.057-0.048-0.098-0.1-0.098c-0.053,0-0.093,0.04-0.1,0.098L2.5,17.607l0.182,1.367C2.69,19.032,2.73,19.072,2.782,19.072z
	 M4.814,14.947c-0.007-0.072-0.06-0.123-0.125-0.123c-0.067,0-0.12,0.052-0.125,0.123l-0.235,2.665l0.235,2.567
	c0.005,0.068,0.058,0.12,0.125,0.12c0.065,0,0.117-0.052,0.125-0.12l0.265-2.567L4.814,14.947z M5.681,20.401
	c0.075,0,0.138-0.06,0.147-0.143l0,0l0.25-2.647l-0.25-2.74c-0.007-0.083-0.07-0.143-0.147-0.143c-0.078,0-0.14,0.06-0.148,0.143
	l-0.22,2.74l0.22,2.647C5.539,20.341,5.602,20.401,5.681,20.401z M6.677,20.444c0.088,0,0.16-0.072,0.168-0.165l0,0l0.237-2.67
	l-0.237-2.542c-0.007-0.095-0.078-0.163-0.168-0.163c-0.09,0-0.163,0.072-0.168,0.163l-0.208,2.542l0.208,2.67
	C6.516,20.372,6.589,20.444,6.677,20.444z M8.096,17.611l-0.223-4.132c-0.005-0.103-0.088-0.185-0.19-0.185
	c-0.1,0-0.183,0.083-0.188,0.185l-0.195,4.132l0.195,2.67c0.005,0.103,0.088,0.187,0.188,0.187c0.102,0,0.183-0.083,0.19-0.187l0,0
	L8.096,17.611z M8.699,20.472c0.112,0,0.203-0.092,0.208-0.208v0.002l0.207-2.655l-0.207-5.077
	c-0.005-0.115-0.098-0.207-0.208-0.207c-0.113,0-0.207,0.092-0.212,0.207l-0.182,5.077l0.182,2.653
	C8.492,20.381,8.584,20.472,8.699,20.472z M9.721,11.882c-0.127,0-0.227,0.102-0.233,0.23l-0.17,5.5l0.17,2.627
	c0.005,0.128,0.105,0.23,0.233,0.23c0.125,0,0.227-0.102,0.232-0.23l0,0l0.193-2.627l-0.193-5.5
	C9.947,11.982,9.846,11.882,9.721,11.882z M10.751,20.472c0.138,0,0.248-0.11,0.253-0.252v0.003l0.177-2.61l-0.177-5.684
	c-0.005-0.145-0.115-0.253-0.253-0.253s-0.25,0.108-0.252,0.253l-0.158,5.682l0.158,2.612
	C10.501,20.363,10.614,20.472,10.751,20.472z M11.789,20.471c0.15,0,0.27-0.12,0.273-0.273l0,0l0.163-2.585l-0.163-5.54
	c-0.003-0.153-0.123-0.273-0.273-0.273c-0.152,0-0.273,0.12-0.275,0.273l-0.145,5.54l0.145,2.585
	C11.517,20.351,11.637,20.471,11.789,20.471z M13.281,17.612l-0.148-5.34c-0.003-0.163-0.133-0.293-0.297-0.293
	c-0.163,0-0.293,0.13-0.297,0.297l-0.132,5.337l0.132,2.57c0.003,0.162,0.133,0.29,0.297,0.29c0.163,0,0.293-0.128,0.297-0.293
	v0.003L13.281,17.612z M13.889,20.479c0.172,0,0.315-0.142,0.317-0.315v0.003l0.133-2.553l-0.133-6.352
	c-0.002-0.173-0.147-0.315-0.317-0.315c-0.172,0-0.313,0.142-0.317,0.315l-0.12,6.35c0,0.005,0.12,2.555,0.12,2.555
	C13.576,20.337,13.717,20.479,13.889,20.479z M14.939,10.349c-0.183,0-0.337,0.153-0.34,0.34l-0.138,6.924l0.138,2.517
	c0.003,0.183,0.155,0.335,0.34,0.335s0.335-0.152,0.338-0.338v0.003l0.152-2.517l-0.152-6.927
	C15.276,10.502,15.124,10.349,14.939,10.349z M15.901,20.482c0.008,0,8.469,0.002,8.522,0.002c1.7,0,3.077-1.375,3.077-3.075
	c0-1.697-1.377-3.075-3.077-3.075c-0.422,0-0.823,0.087-1.188,0.238c-0.245-2.77-2.568-4.944-5.404-4.944
	c-0.693,0-1.37,0.133-1.968,0.367c-0.232,0.09-0.293,0.182-0.295,0.363v9.759C15.571,20.306,15.718,20.461,15.901,20.482z"/>
<g>
</g>
<g>
</g>
<g>
</g>
<g>
</g>
<g>
</g>
<g>
</g>
<g>
</g>
<g>
</g>
<g>
</g>
<g>
</g>
<g>
</g>
<g>
</g>
<g>
</g>
<g>
</g>
<g>
</g>
</svg>
